<?xml version="1.0" encoding="UTF-8"?>
<svg width="20" height="20" viewBox="0 0 20 20" fill="none" xmlns="http://www.w3.org/2000/svg">
  <path d="M1 1h2v2H1V1zm4 0h2v2H5V1zm4 0h2v2H9V1zm4 0h2v2h-2V1zm4 0h2v2h-2V1zm-16 4h2v2H1V5zm4 0h2v2H5V5zm4 0h2v2H9V5zm4 0h2v2h-2V5zm4 0h2v2h-2V5zm-16 4h2v2H1V9zm4 0h2v2H5V9zm4 0h2v2H9V9zm4 0h2v2h-2V9zm4 0h2v2h-2V9zm-16 4h2v2H1v-2zm4 0h2v2H5v-2zm4 0h2v2H9v-2zm4 0h2v2h-2v-2zm4 0h2v2h-2v-2zm-16 4h2v2H1v-2zm4 0h2v2H5v-2zm4 0h2v2H9v-2zm4 0h2v2h-2v-2zm4 0h2v2h-2v-2z" fill="currentColor"/>
</svg>
