<svg xmlns="http://www.w3.org/2000/svg" viewBox="0 0 60 40">
  <rect width="60" height="40" fill="#fff"/>
  <path d="M41.77 17.18c.04.32.04.65 0 .97-.44 2.35-1.85 3.15-3.67 3.15h-.93c-.25 0-.46.18-.5.42l-.53 3.36-.15.96c-.03.2-.2.34-.4.34h-2.8c-.23 0-.39-.22-.36-.44l.02-.11.54-3.41.13-.84c.04-.24.25-.42.5-.42h.57c2.15 0 3.82-1.04 4.31-3.7.2-1.14.1-2.1-.73-2.77v-.01c.22.14.41.3.58.48.42.47.69 1.09.77 1.79l.01.02.14.21z" fill="#1d3586"/>
  <path d="M40.86 15.18c-.08-.02-.16-.05-.24-.07-.08-.02-.17-.03-.25-.05-.3-.05-.63-.08-.98-.08h-2.97c-.07 0-.14.02-.2.05-.18.06-.32.22-.35.41l-.84 5.31v.14c.04-.24.25-.42.5-.42h.93c1.82 0 3.23-.8 3.67-3.15.04-.32.04-.65 0-.97-.08-.7-.35-1.32-.77-1.79-.17-.18-.36-.34-.58-.48.06.04.12.07.18.11" fill="#0c3178"/>
  <path d="M35.87 15.44c.03-.19.17-.35.35-.41.06-.03.13-.05.2-.05h2.97c.35 0 .68.03.98.08.08.02.17.03.25.05.08.02.16.05.24.07l-.18-.11c-.23-.14-.5-.25-.79-.33-.3-.08-.63-.12-.98-.12h-2.97c-.73 0-1.35.53-1.46 1.24l-.84 5.31-.02.11c-.03.22.13.44.36.44h2.8c.2 0 .37-.14.4-.34l.15-.96.53-3.36v-.14l.84-5.31.17-1.07" fill="#001f6b"/>
  <path d="M24.12 17.18c.04.32.04.65 0 .97-.44 2.35-1.85 3.15-3.67 3.15h-.93c-.25 0-.46.18-.5.42l-.53 3.36-.15.96c-.03.2-.2.34-.4.34h-2.8c-.23 0-.39-.22-.36-.44l.02-.11.54-3.41.13-.84c.04-.24.25-.42.5-.42h.57c2.15 0 3.82-1.04 4.31-3.7.2-1.14.1-2.1-.73-2.77v-.01c.22.14.41.3.58.48.42.47.69 1.09.77 1.79l.01.02.14.21z" fill="#009be1"/>
  <path d="M23.21 15.18c-.08-.02-.16-.05-.24-.07-.08-.02-.17-.03-.25-.05-.3-.05-.63-.08-.98-.08h-2.97c-.07 0-.14.02-.2.05-.18.06-.32.22-.35.41l-.84 5.31v.14c.04-.24.25-.42.5-.42h.93c1.82 0 3.23-.8 3.67-3.15.04-.32.04-.65 0-.97-.08-.7-.35-1.32-.77-1.79-.17-.18-.36-.34-.58-.48.06.04.12.07.18.11" fill="#0086cc"/>
  <path d="M18.22 15.44c.03-.19.17-.35.35-.41.06-.03.13-.05.2-.05h2.97c.35 0 .68.03.98.08.08.02.17.03.25.05.08.02.16.05.24.07l-.18-.11c-.23-.14-.5-.25-.79-.33-.3-.08-.63-.12-.98-.12h-2.97c-.73 0-1.35.53-1.46 1.24l-.84 5.31-.02.11c-.03.22.13.44.36.44h2.8c.2 0 .37-.14.4-.34l.15-.96.53-3.36v-.14l.84-5.31.17-1.07" fill="#00579f"/></svg>
