<svg xmlns="http://www.w3.org/2000/svg" viewBox="0 0 60 40">
  <rect width="60" height="40" fill="#fff"/>
  <path d="M25.85 25.23h-3.04l1.9-11.46h3.04l-1.9 11.46zm-5.7-11.46l-2.9 7.84-.34-1.71-1.02-5.1s-.13-1.03-1.5-1.03h-4.93l-.06.2s1.5.31 3.25 1.37l2.7 9.89h3.24l4.96-11.46h-3.4zm22.77 11.46h2.78l-2.42-11.46h-2.44c-1.13 0-1.4.86-1.4.86l-4.56 10.6h3.16l.63-1.73h3.87l.38 1.73zm-3.37-4.12l1.58-4.35.9 4.35h-2.48zm-4.53-4.7l.44-2.54s-1.34-.5-2.74-.5c-1.51 0-5.13.66-5.13 3.87 0 3.02 4.23 3.06 4.23 4.66s-3.8 1.03-5.05.24l-.46 2.66s1.37.66 3.45.66c2.08 0 5.25-1.08 5.25-4.02 0-3.06-4.27-3.34-4.27-4.66 0-1.32 2.97-.92 4.28-.37z" fill="#1434cb"/>
  <path d="M19.47 13.77l-.34-1.71-1.02-5.1s-.13-1.03-1.5-1.03" fill="#f7b600"/>
</svg>
